<svg xmlns="http://www.w3.org/2000/svg" width="1000" height="1250" viewBox="0 0 1000 1250">
  <defs>
    <radialGradient id="bg" cx="42%" cy="30%" r="90%">
      <stop offset="0%" stop-color="#332a1c"/>
      <stop offset="45%" stop-color="#15110e"/>
      <stop offset="100%" stop-color="#0a0807"/>
    </radialGradient>
    <linearGradient id="g-dymfg" x1="0" y1="0" x2="1" y2="1">
      <stop offset="0%" stop-color="#E2CD9F"/>
      <stop offset="50%" stop-color="#C9A66B"/>
      <stop offset="100%" stop-color="#E2CD9F"/>
    </linearGradient>
    <radialGradient id="floor" cx="50%" cy="78%" r="60%">
      <stop offset="0%" stop-color="#ffffff" stop-opacity="0.10"/>
      <stop offset="100%" stop-color="#ffffff" stop-opacity="0"/>
    </radialGradient>
    <filter id="facetglow" x="-50%" y="-50%" width="200%" height="200%">
      <feGaussianBlur stdDeviation="26"/>
    </filter>
    
    <filter id="grain">
      <feTurbulence type="fractalNoise" baseFrequency="0.9" numOctaves="2" stitchTiles="stitch" result="n"/>
      <feColorMatrix in="n" type="saturate" values="0"/>
      <feComponentTransfer><feFuncA type="linear" slope="0.06"/></feComponentTransfer>
      <feComposite operator="over" in2="SourceGraphic"/>
    </filter>
    <radialGradient id="vig" cx="50%" cy="45%" r="75%">
      <stop offset="60%" stop-color="#000000" stop-opacity="0"/>
      <stop offset="100%" stop-color="#000000" stop-opacity="0.55"/>
    </radialGradient>
  </defs>

  <rect width="1000" height="1250" fill="url(#bg)"/>
  <ellipse cx="500" cy="980" rx="360" ry="120" fill="url(#floor)"/>
  
    <ellipse cx="500" cy="640" rx="230" ry="180" fill="none" stroke="url(#g-dymfg)" stroke-width="44"/>
    <ellipse cx="500" cy="640" rx="230" ry="180" fill="none" stroke="#ffffff" stroke-opacity="0.18" stroke-width="8"/>
    <circle cx="270.0" cy="640.0" r="9" fill="#ffffff" opacity="0.95"/><circle cx="287.5" cy="571.1" r="9" fill="#ffffff" opacity="0.95"/><circle cx="337.4" cy="512.7" r="9" fill="#ffffff" opacity="0.95"/><circle cx="412.0" cy="473.7" r="9" fill="#ffffff" opacity="0.95"/><circle cx="500.0" cy="460.0" r="9" fill="#ffffff" opacity="0.95"/><circle cx="588.0" cy="473.7" r="9" fill="#ffffff" opacity="0.95"/><circle cx="662.6" cy="512.7" r="9" fill="#ffffff" opacity="0.95"/><circle cx="712.5" cy="571.1" r="9" fill="#ffffff" opacity="0.95"/><circle cx="730.0" cy="640.0" r="9" fill="#ffffff" opacity="0.95"/>
  <rect width="1000" height="1250" fill="url(#vig)"/>
  <rect width="1000" height="1250" filter="url(#grain)" opacity="0.5"/>
</svg>