<svg xmlns="http://www.w3.org/2000/svg" width="1000" height="1250" viewBox="0 0 1000 1250">
  <defs>
    <radialGradient id="bg" cx="42%" cy="30%" r="90%">
      <stop offset="0%" stop-color="#3a201f"/>
      <stop offset="45%" stop-color="#15110e"/>
      <stop offset="100%" stop-color="#0a0807"/>
    </radialGradient>
    <linearGradient id="g-kch3k" x1="0" y1="0" x2="1" y2="1">
      <stop offset="0%" stop-color="#E7C7A0"/>
      <stop offset="50%" stop-color="#C9A66B"/>
      <stop offset="100%" stop-color="#E7C7A0"/>
    </linearGradient>
    <radialGradient id="floor" cx="50%" cy="78%" r="60%">
      <stop offset="0%" stop-color="#ffffff" stop-opacity="0.10"/>
      <stop offset="100%" stop-color="#ffffff" stop-opacity="0"/>
    </radialGradient>
    <filter id="facetglow" x="-50%" y="-50%" width="200%" height="200%">
      <feGaussianBlur stdDeviation="26"/>
    </filter>
    
    <filter id="grain">
      <feTurbulence type="fractalNoise" baseFrequency="0.9" numOctaves="2" stitchTiles="stitch" result="n"/>
      <feColorMatrix in="n" type="saturate" values="0"/>
      <feComponentTransfer><feFuncA type="linear" slope="0.06"/></feComponentTransfer>
      <feComposite operator="over" in2="SourceGraphic"/>
    </filter>
    <radialGradient id="vig" cx="50%" cy="45%" r="75%">
      <stop offset="60%" stop-color="#000000" stop-opacity="0"/>
      <stop offset="100%" stop-color="#000000" stop-opacity="0.55"/>
    </radialGradient>
  </defs>

  <rect width="1000" height="1250" fill="url(#bg)"/>
  <ellipse cx="500" cy="980" rx="360" ry="120" fill="url(#floor)"/>
  
    <path d="M230 360 C 360 760, 640 760, 770 360" fill="none" stroke="url(#g-kch3k)" stroke-width="6" stroke-linecap="round"/>
    <circle cx="271.5" cy="446.2" r="10.8" fill="#ffffff" opacity="0.95"/><circle cx="313.1" cy="527.3" r="14.4" fill="#ffffff" opacity="0.95"/><circle cx="354.6" cy="598.7" r="17.6" fill="#ffffff" opacity="0.95"/><circle cx="396.2" cy="656.3" r="20.2" fill="#ffffff" opacity="0.95"/><circle cx="437.7" cy="696.6" r="22.0" fill="#ffffff" opacity="0.95"/><circle cx="479.2" cy="717.4" r="22.9" fill="#ffffff" opacity="0.95"/><circle cx="520.8" cy="717.4" r="22.9" fill="#ffffff" opacity="0.95"/><circle cx="562.3" cy="696.6" r="22.0" fill="#ffffff" opacity="0.95"/><circle cx="603.8" cy="656.3" r="20.2" fill="#ffffff" opacity="0.95"/><circle cx="645.4" cy="598.7" r="17.6" fill="#ffffff" opacity="0.95"/><circle cx="686.9" cy="527.3" r="14.4" fill="#ffffff" opacity="0.95"/><circle cx="728.5" cy="446.2" r="10.8" fill="#ffffff" opacity="0.95"/>
    
    <g filter="url(#facetglow)">
      <polygon points="500,690 542,721.5 500,774 458,721.5" fill="#ffffff" opacity="0.96"/>
      <polygon points="458,721.5 500,774 500,721.5" fill="#dfe6ef" opacity="0.85"/>
      <polygon points="542,721.5 500,774 500,721.5" fill="#c7d0dd" opacity="0.8"/>
      <polygon points="500,690 542,721.5 500,721.5 458,721.5" fill="#ffffff" opacity="0.6"/>
    </g>
  <rect width="1000" height="1250" fill="url(#vig)"/>
  <rect width="1000" height="1250" filter="url(#grain)" opacity="0.5"/>
</svg>